<svg width="25" height="25" viewBox="0 0 25 25" fill="none" xmlns="http://www.w3.org/2000/svg">
<path fill-rule="evenodd" clip-rule="evenodd" d="M18.0864 13.5435H13.1V18.53C13.1 19.0785 12.6512 19.5273 12.1027 19.5273C11.5541 19.5273 11.1054 19.0785 11.1054 18.53V13.5435H6.11888C5.57037 13.5435 5.12158 13.0947 5.12158 12.5462C5.12158 11.9977 5.57037 11.5489 6.11888 11.5489H11.1054V6.56242C11.1054 6.01391 11.5541 5.56512 12.1027 5.56512C12.6512 5.56512 13.1 6.01391 13.1 6.56242V11.5489H18.0864C18.635 11.5489 19.0837 11.9977 19.0837 12.5462C19.0837 13.0947 18.635 13.5435 18.0864 13.5435Z" fill="#18214D"/>
<path fill-rule="evenodd" clip-rule="evenodd" d="M18.0864 13.5435H6.11888C5.57037 13.5435 5.12158 13.0947 5.12158 12.5462C5.12158 11.9977 5.57037 11.5489 6.11888 11.5489H18.0864C18.635 11.5489 19.0837 11.9977 19.0837 12.5462C19.0837 13.0947 18.635 13.5435 18.0864 13.5435Z" fill="#18214D"/>
</svg>
